<?xml version="1.0" encoding="UTF-8"?><svg xmlns="http://www.w3.org/2000/svg" xmlns:inkscape="http://www.inkscape.org/namespaces/inkscape" xmlns:sodipodi="http://sodipodi.sourceforge.net/DTD/sodipodi-0.dtd" width="1440" height="900" viewBox="0 0 1440 900" data-shell-reference-sha256="48b554d3dd1e360402f99950c90006d7b2a2ed1ccdd96ab6616fff76ca954211" data-site="mapguess"><sodipodi:namedview pagecolor="#BDBDBD"><inkscape:page x="0" y="0" width="1440" height="900" inkscape:label="Initial corruption"/><inkscape:page x="1480" y="0" width="1440" height="900" inkscape:label="First repair complete"/><inkscape:page x="2960" y="0" width="1440" height="900" inkscape:label="Auto over-fix"/><inkscape:page x="4440" y="0" width="1440" height="900" inkscape:label="Lock in the repair"/></sodipodi:namedview><defs>
    <linearGradient id="desktopGradient" x1="0" y1="0" x2="0" y2="1">
      <stop offset="0" stop-color="#087f86"/><stop offset="1" stop-color="#00646b"/>
    </linearGradient>
    <linearGradient id="titleGradient" x1="0" y1="0" x2="1" y2="0">
      <stop offset="0" stop-color="#053b70"/><stop offset="0.58" stop-color="#00578d"/><stop offset="1" stop-color="#00305e"/>
    </linearGradient>
    <linearGradient id="buttonGradient" x1="0" y1="0" x2="0" y2="1">
      <stop offset="0" stop-color="#f3f2eb"/><stop offset="1" stop-color="#c8c6bc"/>
    </linearGradient>
    <linearGradient id="redGradient" x1="0" y1="0" x2="0" y2="1">
      <stop offset="0" stop-color="#db2b22"/><stop offset="1" stop-color="#a70f0a"/>
    </linearGradient>
    <linearGradient id="spectrumGradient" x1="0" y1="0" x2="1" y2="0">
      <stop offset="0" stop-color="#0a42db"/><stop offset="0.23" stop-color="#477bc5"/><stop offset="0.48" stop-color="#f3d11c"/><stop offset="0.67" stop-color="#ffd821"/><stop offset="0.84" stop-color="#a5a6a1"/><stop offset="1" stop-color="#686b6c"/>
    </linearGradient>
    <pattern id="desktopHatch" width="8" height="8" patternUnits="userSpaceOnUse" patternTransform="rotate(35)">
      <line x1="0" y1="0" x2="0" y2="8" stroke="#003b40" stroke-opacity="0.13" stroke-width="2"/>
    </pattern>
    <pattern id="redHatch" width="10" height="10" patternUnits="userSpaceOnUse" patternTransform="rotate(45)">
      <line x1="0" y1="0" x2="0" y2="10" stroke="#C5251E" stroke-opacity="0.13" stroke-width="3"/>
    </pattern>
    <filter id="windowShadow" x="-10%" y="-10%" width="125%" height="130%">
      <feGaussianBlur in="SourceAlpha" stdDeviation="2" result="blur"/>
      <feOffset in="blur" dx="4" dy="5" result="offset"/>
      <feFlood flood-color="#001f22" flood-opacity="0.55" result="color"/>
      <feComposite in="color" in2="offset" operator="in" result="shadow"/>
      <feMerge><feMergeNode in="shadow"/><feMergeNode in="SourceGraphic"/></feMerge>
    </filter>
    <filter id="grayscale" color-interpolation-filters="sRGB"><feColorMatrix type="saturate" values="0"/></filter>
    <filter id="softPaper" x="-5%" y="-5%" width="110%" height="110%">
      <feTurbulence baseFrequency="0.8" numOctaves="2" seed="12" type="fractalNoise" result="noise"/>
      <feColorMatrix in="noise" values="1 0 0 0 0  0 1 0 0 0  0 0 1 0 0  0 0 0 .035 0" result="grain"/>
      <feBlend in="SourceGraphic" in2="grain" mode="multiply"/>
    </filter>
    <clipPath id="dogCardClip"><rect x="730" y="216" width="152" height="174" rx="2"/></clipPath>

    <g id="windowButton">
      <rect width="27" height="25" fill="url(#buttonGradient)" stroke="#ffffff" stroke-width="1"/>
      <path d="M1 24H26V1" fill="none" stroke="#66645f" stroke-width="2"/>
    </g>
    <g id="desktopComputer">
      <path d="M17 6h39v31H17z" fill="#dfddd4" stroke="#34393a" stroke-width="2"/>
      <path d="M21 10h31v21H21z" fill="#173f48" stroke="#7e8d8e"/><path d="M26 13h21v14H26z" fill="#9ec3c0"/>
      <path d="M28 38h17l4 8H23z" fill="#c9c7bd" stroke="#34393a"/><path d="M13 47h48v7H13z" fill="#e3e1d8" stroke="#34393a"/>
    </g>
    <g id="desktopFloppy">
      <rect x="13" y="3" width="48" height="52" rx="3" fill="#d6d5cb" stroke="#253237" stroke-width="2"/>
      <rect x="21" y="3" width="30" height="18" fill="#26353d"/><rect x="25" y="5" width="17" height="13" fill="#e8e6df"/>
      <rect x="21" y="31" width="32" height="21" fill="#f1f0ea" stroke="#6f7475"/><rect x="26" y="36" width="22" height="2" fill="#869296"/><rect x="26" y="42" width="22" height="2" fill="#869296"/>
    </g>
    <g id="desktopTrash">
      <path d="M19 13h40l-4 43H23z" fill="#b9b8af" stroke="#303637" stroke-width="2"/><path d="M15 10h48v6H15z" fill="#d8d6cd" stroke="#303637" stroke-width="2"/>
      <path d="M26 20v29M36 20v29M46 20v29" stroke="#6d6e69" stroke-width="3"/>
      <path d="M23 8c4-8 9-4 12 0 3-8 9-5 13 0" fill="#dedbd1" stroke="#303637"/>
    </g>
    <g id="microphoneIcon">
      <rect x="7" y="0" width="12" height="25" rx="6" fill="#2b7c88" stroke="#071f43" stroke-width="2"/><path d="M3 14c0 13 20 13 20 0M13 27v10M7 37h12" fill="none" stroke="#071f43" stroke-width="2"/>
    </g>

    <g id="sharedShell">
      <rect width="1440" height="900" fill="url(#desktopGradient)"/>
      <rect width="1440" height="900" fill="url(#desktopHatch)"/>

      <g class="desktop-icon" transform="translate(10 72)"><use href="#desktopComputer"/><text x="37" y="72" text-anchor="middle">MY</text><text x="37" y="93" text-anchor="middle">COMPUTER</text></g>
      <g class="desktop-icon" transform="translate(10 245)"><use href="#desktopFloppy"/><text x="37" y="73" text-anchor="middle">FLOPPY</text><text x="37" y="94" text-anchor="middle">DISK</text></g>
      <g class="desktop-icon" transform="translate(10 418)"><use href="#desktopTrash"/><text x="37" y="76" text-anchor="middle">TRASH</text></g>

      <g filter="url(#windowShadow)">
        <rect x="105" y="18" width="810" height="824" rx="4" fill="#f8f7f2" stroke="#3c4242" stroke-width="4"/>
        <rect x="109" y="22" width="802" height="34" fill="url(#titleGradient)"/>
        <text x="126" y="46" class="window-title">www.wikiwhy.com</text>
        <use href="#windowButton" x="817" y="26"/><use href="#windowButton" x="848" y="26"/><use href="#windowButton" x="879" y="26"/>
        <path d="M825 43h11" stroke="#191919" stroke-width="3"/><rect x="855" y="32" width="13" height="13" fill="none" stroke="#222" stroke-width="2"/><path d="m886 33 13 13m0-13-13 13" stroke="#222" stroke-width="2"/>
        <rect x="109" y="56" width="802" height="714" fill="#fbfaf6" filter="url(#softPaper)"/>
        <image href="../../2026-08-15/wikiwhy-inkscape-spike/assets/wikiwhy-globe.png" x="126" y="67" width="72" height="72" preserveAspectRatio="xMidYMid meet" filter="url(#grayscale)"/>
        <text x="208" y="96" class="brand-title" style="font-size:19px">WIKIWHY</text>
        <text x="208" y="116" class="tiny-caps">INTERNET ENCYCLOPEDIA</text>
        <text x="782" y="83" class="tiny">Create account</text><text x="865" y="83" class="tiny">Log in</text>

        <line x1="109" y1="146" x2="222" y2="146" stroke="#6284a3"/>
        <g class="tab"><rect x="224" y="121" width="73" height="42"/><text x="260" y="148">Article</text></g>
        <g class="tab"><rect x="302" y="121" width="68" height="42"/><text x="336" y="148">Talk</text></g>
        <g class="tab selected"><rect x="375" y="121" width="73" height="42"/><text x="411" y="148">Read</text></g>
        <g class="tab"><rect x="453" y="121" width="108" height="42"/><text x="507" y="148">View source</text></g>
        <g class="tab history-base"><rect x="566" y="121" width="86" height="42"/><text x="609" y="148">History</text></g>
        <rect x="674" y="119" width="218" height="37" rx="3" fill="#fbfaf7" stroke="#53708b" stroke-width="1.5"/>
        <text x="689" y="143" class="tiny">Search WikiWhy</text><circle cx="864" cy="136" r="7" fill="none" stroke="#172530" stroke-width="2"/><path d="m869 141 8 8" stroke="#172530" stroke-width="2"/>

        <line x1="224" y1="163" x2="224" y2="770" stroke="#7b9ab7"/>
        <g class="sidebar-text"><text x="127" y="187">Main page</text><text x="127" y="211">Contents</text><text x="127" y="235">Current events</text><text x="127" y="259">Random article</text><text x="127" y="283">About WikiWhy</text><text x="127" y="307">Community portal</text><text x="127" y="331">Recent changes</text><text x="127" y="355">Contact page</text><line x1="124" y1="375" x2="211" y2="375" stroke="#7595ae"/><text x="127" y="400" fill="#222">Tools</text><text x="127" y="424">What links here</text><text x="127" y="448">Related changes</text><text x="127" y="472">Upload file</text><text x="127" y="496">Special pages</text></g>
        <line x1="109" y1="770" x2="911" y2="770" stroke="#687f94"/>
        <rect x="109" y="770" width="802" height="68" fill="#f1f0ea"/>
        <g transform="translate(128 802)"><circle cx="12" cy="12" r="10" fill="none" stroke="#163c63" stroke-width="2"/><path d="m19 19 8 8" stroke="#163c63" stroke-width="3"/></g>
        <text x="168" y="823" class="meter-label">SOURCE REPAIR</text>
        <rect x="368" y="804" width="250" height="20" rx="2" fill="#f8f8f5" stroke="#5b7184" stroke-width="1.5"/>

        <rect x="935" y="18" width="480" height="824" rx="4" fill="#f8f7f2" stroke="#3c4242" stroke-width="4"/>
        <rect x="939" y="22" width="472" height="34" fill="url(#titleGradient)"/>
        <text x="956" y="46" class="window-title">READING COMPANION</text>
        <use href="#windowButton" x="1317" y="26"/><use href="#windowButton" x="1348" y="26"/><use href="#windowButton" x="1379" y="26"/>
        <path d="M1325 43h11" stroke="#191919" stroke-width="3"/><rect x="1355" y="32" width="13" height="13" fill="none" stroke="#222" stroke-width="2"/><path d="m1386 33 13 13m0-13-13 13" stroke="#222" stroke-width="2"/>
        <rect x="939" y="56" width="472" height="532" fill="#fbfaf6" filter="url(#softPaper)"/>
        <text x="962" y="558" class="tiny-caps">PASSAGE PROGRESS</text>
        <rect x="962" y="568" width="400" height="15" rx="2" fill="#f8f8f5" stroke="#5b7184"/>
        <line x1="939" y1="588" x2="1411" y2="588" stroke="#6e8294"/>
        <g transform="translate(962 607)"><use href="#microphoneIcon"/><text x="0" y="53" class="listening">LISTENING</text></g>
        <rect x="1178" y="614" width="88" height="34" fill="url(#buttonGradient)" stroke="#61778b"/><text x="1222" y="637" class="button-text" text-anchor="middle">PAUSE</text>
        <rect x="1277" y="614" width="110" height="34" fill="url(#buttonGradient)" stroke="#61778b"/><text x="1332" y="637" class="button-text" text-anchor="middle">FINISH NOW</text>
        <line x1="939" y1="670" x2="1411" y2="670" stroke="#6e8294"/>
        <rect x="939" y="671" width="472" height="43" fill="url(#titleGradient)"/>
        <text x="955" y="699" class="quick-title">QUICK CHECK — OPENS AFTER READING</text><path d="m1383 687 11 0-5.5 8z" fill="#fff"/>
        <rect x="958" y="735" width="434" height="70" fill="#fbfaf7" stroke="#a9aaa4" stroke-dasharray="7 5"/>
        <text x="982" y="778" class="placeholder">★   RESULTS AFTER QUICK CHECK</text>
      </g>

      <g class="taskbar">
        <rect x="0" y="854" width="1440" height="46" fill="#d6d4ca" stroke="#f4f2eb" stroke-width="2"/>
        <g class="task-button"><rect x="6" y="860" width="96" height="33"/><text x="54" y="882" text-anchor="middle">START</text></g>
        <g class="task-button"><rect x="111" y="860" width="192" height="33"/><circle cx="130" cy="876" r="7" fill="#32677a" stroke="#17282d"/><text x="146" y="882">WIKIWHY</text></g>
        <g class="task-button"><rect x="312" y="860" width="216" height="33"/><path d="M327 870h12v13h-12zm3 0v13" fill="none" stroke="#4b5657"/><text x="349" y="882">READING COMPANION</text></g>
        <text x="720" y="882" class="taskbar-title" text-anchor="middle">INTERNET RECOVERY OS</text>
        <g transform="translate(1262 870) scale(.62)" stroke="#17272b" fill="none"><path d="m0 10 8 0 9-7v22l-9-7H0z" fill="#626b6c"/><path d="M22 7q8 7 0 14M27 3q13 11 0 22"/></g>
        <g transform="translate(1308 867)" fill="#18863c"><rect x="0" y="15" width="5" height="8"/><rect x="8" y="11" width="5" height="12"/><rect x="16" y="6" width="5" height="17"/><rect x="24" y="1" width="5" height="22"/></g>
        <text x="1405" y="882" class="taskbar-clock" text-anchor="end">10:24 AM</text>
      </g>
    </g>
  <pattern id="errorHatch" width="10" height="10" patternUnits="userSpaceOnUse" patternTransform="rotate(35)"><line x1="0" y1="0" x2="0" y2="10" stroke="#C5251E" stroke-opacity=".24" stroke-width="3"/></pattern></defs><style>
    .window-title{font-family:'Chalkboard SE','Comic Sans MS',sans-serif;font-size:18px;font-weight:700;fill:#fff;letter-spacing:.2px}
    .brand-title{font-family:'Chalkboard SE','Comic Sans MS',sans-serif;font-size:15px;font-weight:700;fill:#10151a;letter-spacing:.3px}
    .tiny{font-family:'Chalkboard SE','Comic Sans MS',sans-serif;font-size:11.5px;fill:#15191b}.tiny-caps{font-family:'Chalkboard SE','Comic Sans MS',sans-serif;font-size:11.5px;font-weight:600;fill:#152335;letter-spacing:.3px}
    .tab rect{fill:#f4f2ec;stroke:#6183a2;stroke-width:1.3}.tab text{font-family:'Chalkboard SE','Comic Sans MS',sans-serif;font-size:12.5px;fill:#161a1b;text-anchor:middle}.tab.selected rect{stroke:#1553dd;stroke-width:2}.tab.selected text{fill:#0d45c9}
    .sidebar-text{font-family:'Chalkboard SE','Comic Sans MS',sans-serif;font-size:11.5px;fill:#0750c4}.desktop-icon{font-family:'Chalkboard SE','Comic Sans MS',sans-serif;font-size:14px;font-weight:600;fill:#fff;letter-spacing:.2px}
    .phase-small{font-family:'Chalkboard SE','Comic Sans MS',sans-serif;font-size:12px;fill:#17232b}.phase-label{font-weight:700}.meter-label{font-family:'Chalkboard SE','Comic Sans MS',sans-serif;font-size:14px;font-weight:600;fill:#15243b}.button-text{font-family:'Chalkboard SE','Comic Sans MS',sans-serif;font-size:13px;font-weight:600;fill:#142649}
    .listening{font-family:'Chalkboard SE','Comic Sans MS',sans-serif;font-size:12.5px;font-weight:700;fill:#16813b}.quick-title{font-family:'Chalkboard SE','Comic Sans MS',sans-serif;font-size:14px;font-weight:600;fill:#fff;letter-spacing:.2px}.placeholder{font-family:'Chalkboard SE','Comic Sans MS',sans-serif;font-size:14px;fill:#888}
    .task-button rect{fill:url(#buttonGradient);stroke:#6d6d67;stroke-width:1.3}.task-button text{font-family:'Chalkboard SE','Comic Sans MS',sans-serif;font-size:14px;font-weight:600;fill:#15191b}.taskbar-title{font-family:'Chalkboard SE','Comic Sans MS',sans-serif;font-size:14px;fill:#1b2224;letter-spacing:.4px}.taskbar-clock{font-family:'Chalkboard SE','Comic Sans MS',sans-serif;font-size:14px;fill:#1b2224}
    .article-heading{font-family:'Chalkboard SE','Comic Sans MS',sans-serif;font-size:27px;font-weight:700;fill:#141a1c;letter-spacing:.1px}.article-body{font-family:'Chalkboard SE','Comic Sans MS',sans-serif;font-size:14px;fill:#171b1d}.article-body-small{font-family:'Chalkboard SE','Comic Sans MS',sans-serif;font-size:12px;fill:#171b1d}.reading-body{font-family:'Chalkboard SE','Comic Sans MS',sans-serif;font-size:20px;fill:#151a1e}.rail-title{font-family:'Chalkboard SE','Comic Sans MS',sans-serif;font-size:13px;font-weight:700;fill:#17202a}.rail-body{font-family:'Chalkboard SE','Comic Sans MS',sans-serif;font-size:11px;fill:#161a1b}.rule-banner{font-family:'Chalkboard SE','Comic Sans MS',sans-serif;font-size:22px;font-weight:700;fill:#fff;letter-spacing:.2px}.certainty-text{font-family:'Chalkboard SE','Comic Sans MS',sans-serif;font-size:24px;font-weight:700;fill:#C5251E;letter-spacing:.3px}.corrupt-note{font-family:'Chalkboard SE','Comic Sans MS',sans-serif;font-size:20px;font-weight:700;fill:#C5251E}
  .task-label,.search-logo,.site-body,.site-label,.site-heading,.site-micro,.search-head,.result-link,.tiny-ad,.ad-label,.ui-meter,.ui-micro,.lock-title,.lock-label,.lock-mark,.map-logo,.map-city,.map-label,.button-white{font-family:'Chalkboard SE','Comic Sans MS',sans-serif}.task-label{font-size:14px;font-weight:600;fill:#15191B}.search-logo{font-size:26px;font-weight:700}.site-body{font-size:11px;fill:#25323C}.site-label{font-size:11px;font-weight:700}.site-heading{font-size:18px;font-weight:700;fill:#142330}.site-micro{font-size:9px}.search-head{font-size:24px;font-weight:700}.result-link{font-size:17px;fill:#315EAB;text-decoration:underline}.tiny-ad{font-size:6px}.ad-label{font-size:9px;font-weight:700;fill:#fff}.ui-meter{font-size:13px;font-weight:700}.ui-micro{font-size:9px}.lock-title{font-size:19px;font-weight:700;fill:#fff}.lock-label{font-size:12px;font-weight:700}.lock-mark{font-size:15px;font-weight:700}.map-logo{font-size:24px;font-weight:700;fill:#fff}.map-city{font-size:21px;font-weight:700}.map-label{font-size:11px;font-weight:700;fill:#41554E}.muted{fill:#98998F}.button-white{font-size:13px;font-weight:700;fill:#fff}</style><g id="page-initial" transform="translate(0 0)" inkscape:groupmode="layer" inkscape:label="Initial corruption" data-phase="phase-1" data-site-progress="0" data-passage-progress="50" data-visual-delta="0"><use href="#sharedShell"/><g data-shared-shell-patch="site-identity"><rect x="112" y="24" width="520" height="29" fill="url(#titleGradient)"/><text x="126" y="46" class="window-title">www.mapguess.com</text><rect x="112" y="861" width="188" height="31" fill="url(#buttonGradient)" stroke="#6d6d67" stroke-width="1.3"/><text x="54" y="882" class="task-label" text-anchor="middle">START</text><text x="146" y="882" class="task-label">MAPGUESS</text></g><rect x="109" y="56" width="802" height="782" fill="#F8F6ED"/><g data-qa-box="109,56,911,153"><rect x="109" y="56" width="802" height="97" fill="#F8F6ED"/><rect x="109" y="56" width="802" height="48" fill="#2D6D59"/><path d="M128 68h25l8 24h-25z" fill="#F0D76E"/><path d="M141 68h26l-8 24h-26z" fill="#7CC5A5"/><text x="179" y="88" class="map-logo">MapGuess</text><rect x="356" y="65" width="398" height="32" rx="3" fill="#fff" stroke="#C4C8C2"/><text x="369" y="86" class="site-body">San Francisco Public Library</text><rect x="762" y="65" width="85" height="32" rx="3" fill="#F0D76E"/><text x="804" y="86" class="site-label" text-anchor="middle">GET MAP</text><text x="127" y="133" class="site-micro">MAP · DIRECTIONS · PRINT ROUTE · PLACES</text></g><g data-map-surface="true" data-qa-box="119,168,901,660"><rect x="119" y="168" width="782" height="492" fill="#E9E3CB" stroke="#C5251E" stroke-width="2"/><path d="M128 215C230 180 322 229 399 196s141-11 201 19 180 5 286-32v178c-101 32-185 21-263 40-91 22-156 85-266 62-80-17-147-65-229-38z" fill="#C9DFBC"/><path d="M119 506c116-48 218-19 322 23 95 38 212-1 320-42 57-22 95-28 140-12v185H119z" fill="#B8D7E2"/><path d="M150 242 860 582M146 585 843 233M244 176 350 654M574 170 655 654" fill="none" stroke="#F7F5E9" stroke-width="16"/><path d="M150 242 860 582M146 585 843 233M244 176 350 654M574 170 655 654" fill="none" stroke="#909A91" stroke-width="2"/><path d="M226 592 Q470 548 741 321 Q603 366 430 454" fill="none" stroke="#C5251E" stroke-width="11" stroke-linecap="round" stroke-dasharray="16 10"/><text x="495" y="501" class="site-micro" fill="#C5251E">SPONSORED DETOUR · ACROSS WATER</text><circle cx="226" cy="592" r="12" fill="#314A6A"/><text x="246" y="596" class="site-micro">FINN STARTS HERE</text><text x="135" y="199" class="map-city" fill="#9A9A91">CITY LABEL HIDDEN</text><g data-destination="true"><path d="M430 482c-15 0-27-12-27-27 0-21 27-48 27-48s27 27 27 48c0 15-12 27-27 27z" fill="#C5251E"/><circle cx="430" cy="454" r="8" fill="#fff"/><rect x="286" y="493" width="284" height="53" rx="4" fill="#fff" stroke="#C5251E" stroke-width="2"/><text x="301" y="515" class="site-label" fill="#C5251E">LIBRARY?</text><text x="301" y="535" class="site-micro">100 Larkin Street · 27 MIN WITH DETOUR</text></g><g data-snack="true"><circle cx="741" cy="321" r="24" fill="#F0D76E" stroke="#C5251E" stroke-width="4"/><text x="741" y="326" class="site-heading" text-anchor="middle">S</text><rect x="650" y="240" width="225" height="67" rx="4" fill="#fff" stroke="#C5251E"/><text x="662" y="261" class="site-micro" fill="#C5251E">SUGGESTED ON YOUR WAY</text><text x="662" y="286" class="site-label">Snack Palace · Buy 9 snacks!</text></g><text x="208" y="283" class="map-label muted">LANDMARK HIDDEN</text><text x="662" y="582" class="map-label muted">ROAD LABEL HIDDEN</text></g><g data-site-meter="true"><rect x="109" y="677" width="802" height="161" fill="#F7F5EE"/><line x1="109" y1="677" x2="911" y2="677" stroke="#8E9AA0"/><text x="126" y="716" class="ui-meter" fill="#C5251E">ROUTE RECOVERY</text><text x="285" y="716" class="ui-meter" fill="#C5251E">0%</text><rect x="126" y="732" width="752" height="25" fill="url(#errorHatch)" stroke="#C5251E"/><rect x="126" y="732" width="0" height="25" fill="#C5251E" data-role="site-progress-fill" data-percent="0"/><text x="878" y="786" class="ui-micro" text-anchor="end" fill="#C5251E">SPONSORED DETOUR ACTIVE</text></g><g data-companion-state="reading" data-qa-box="958,78,1395,552"><text x="964" y="112" class="reading-body">Finn chose the library.</text><text x="964" y="150" class="reading-body">Does the route still serve that destination?</text><rect x="960" y="183" width="404" height="34" fill="#F8DFA0"/><text x="964" y="209" class="reading-body">Read, then answer the quick check.</text></g><rect x="962" y="568" width="200" height="15" fill="#1387B2" data-role="passage-progress-fill" data-percent="50"/></g>
<g id="page-repaired" transform="translate(1480 0)" inkscape:groupmode="layer" inkscape:label="First repair complete" data-phase="phase-1" data-site-progress="100" data-passage-progress="50" data-visual-delta="3"><use href="#sharedShell"/><g data-shared-shell-patch="site-identity"><rect x="112" y="24" width="520" height="29" fill="url(#titleGradient)"/><text x="126" y="46" class="window-title">www.mapguess.com</text><rect x="112" y="861" width="188" height="31" fill="url(#buttonGradient)" stroke="#6d6d67" stroke-width="1.3"/><text x="54" y="882" class="task-label" text-anchor="middle">START</text><text x="146" y="882" class="task-label">MAPGUESS</text></g><rect x="109" y="56" width="802" height="782" fill="#F8F6ED"/><g data-qa-box="109,56,911,153"><rect x="109" y="56" width="802" height="97" fill="#F8F6ED"/><rect x="109" y="56" width="802" height="48" fill="#2D6D59"/><path d="M128 68h25l8 24h-25z" fill="#F0D76E"/><path d="M141 68h26l-8 24h-26z" fill="#7CC5A5"/><text x="179" y="88" class="map-logo">MapGuess</text><rect x="356" y="65" width="398" height="32" rx="3" fill="#fff" stroke="#C4C8C2"/><text x="369" y="86" class="site-body">San Francisco Public Library</text><rect x="762" y="65" width="85" height="32" rx="3" fill="#F0D76E"/><text x="804" y="86" class="site-label" text-anchor="middle">GET MAP</text><text x="127" y="133" class="site-micro">MAP · DIRECTIONS · PRINT ROUTE · PLACES</text></g><g data-map-surface="true" data-qa-box="119,168,901,660"><rect x="119" y="168" width="782" height="492" fill="#E9E3CB" stroke="#2F8A49" stroke-width="2"/><path d="M128 215C230 180 322 229 399 196s141-11 201 19 180 5 286-32v178c-101 32-185 21-263 40-91 22-156 85-266 62-80-17-147-65-229-38z" fill="#C9DFBC"/><path d="M119 506c116-48 218-19 322 23 95 38 212-1 320-42 57-22 95-28 140-12v185H119z" fill="#B8D7E2"/><path d="M150 242 860 582M146 585 843 233M244 176 350 654M574 170 655 654" fill="none" stroke="#F7F5E9" stroke-width="16"/><path d="M150 242 860 582M146 585 843 233M244 176 350 654M574 170 655 654" fill="none" stroke="#909A91" stroke-width="2"/><path d="M226 592 Q316 526 430 454" fill="none" stroke="#2F8A49" stroke-width="11" stroke-linecap="round"/><text x="303" y="520" class="site-micro" fill="#2F8A49">DIRECT ROUTE · 5 MIN</text><circle cx="226" cy="592" r="12" fill="#314A6A"/><text x="246" y="596" class="site-micro">FINN STARTS HERE</text><text x="135" y="199" class="map-city" fill="#3A514A">SAN FRANCISCO</text><g data-destination="true"><path d="M430 482c-15 0-27-12-27-27 0-21 27-48 27-48s27 27 27 48c0 15-12 27-27 27z" fill="#2F8A49"/><circle cx="430" cy="454" r="8" fill="#fff"/><rect x="286" y="493" width="284" height="53" rx="4" fill="#fff" stroke="#2F8A49" stroke-width="2"/><text x="301" y="515" class="site-label" fill="#2F8A49">SAN FRANCISCO PUBLIC LIBRARY</text><text x="301" y="535" class="site-micro">100 Larkin Street · 5 MIN DIRECT</text></g><g data-snack="true"><circle cx="741" cy="321" r="24" fill="#F0D76E" stroke="#C5251E" stroke-width="4"/><text x="741" y="326" class="site-heading" text-anchor="middle">S</text><rect x="650" y="240" width="225" height="67" rx="4" fill="#fff" stroke="#C5251E"/><text x="662" y="261" class="site-micro" fill="#C5251E">SPONSORED · OPTIONAL</text><text x="662" y="286" class="site-label">Snack Palace · Buy 9 snacks!</text></g><text x="208" y="283" class="map-label">Golden Gate Park</text><text x="662" y="582" class="map-label">Market Street</text></g><g data-site-meter="true"><rect x="109" y="677" width="802" height="161" fill="#F7F5EE"/><line x1="109" y1="677" x2="911" y2="677" stroke="#8E9AA0"/><text x="126" y="716" class="ui-meter" fill="#2F8A49">ROUTE RECOVERY</text><text x="285" y="716" class="ui-meter" fill="#2F8A49">100%</text><rect x="126" y="732" width="752" height="25" fill="url(#errorHatch)" stroke="#2F8A49"/><rect x="126" y="732" width="752" height="25" fill="#2F8A49" data-role="site-progress-fill" data-percent="100"/><text x="878" y="786" class="ui-micro" text-anchor="end" fill="#2F8A49">DESTINATION + ROUTE RESTORED</text></g><g data-companion-state="reading" data-qa-box="958,78,1395,552"><text x="964" y="112" class="reading-body">The direct route and map labels agree.</text><text x="964" y="150" class="reading-body">The sponsored stop stays optional.</text><rect x="960" y="183" width="404" height="34" fill="#F8DFA0"/><text x="964" y="209" class="reading-body">Read, then answer the quick check.</text></g><rect x="962" y="568" width="200" height="15" fill="#1387B2" data-role="passage-progress-fill" data-percent="50"/></g>
<g id="page-auto-overfix" transform="translate(2960 0)" inkscape:groupmode="layer" inkscape:label="Auto over-fix" data-phase="phase-2" data-site-progress="0" data-passage-progress="50" data-visual-delta="0"><use href="#sharedShell"/><g data-shared-shell-patch="site-identity"><rect x="112" y="24" width="520" height="29" fill="url(#titleGradient)"/><text x="126" y="46" class="window-title">www.mapguess.com</text><rect x="112" y="861" width="188" height="31" fill="url(#buttonGradient)" stroke="#6d6d67" stroke-width="1.3"/><text x="54" y="882" class="task-label" text-anchor="middle">START</text><text x="146" y="882" class="task-label">MAPGUESS</text></g><rect x="109" y="56" width="802" height="782" fill="#F8F6ED"/><g data-qa-box="109,56,911,153"><rect x="109" y="56" width="802" height="97" fill="#F8F6ED"/><rect x="109" y="56" width="802" height="48" fill="#2D6D59"/><path d="M128 68h25l8 24h-25z" fill="#F0D76E"/><path d="M141 68h26l-8 24h-26z" fill="#7CC5A5"/><text x="179" y="88" class="map-logo">MapGuess</text><rect x="356" y="65" width="398" height="32" rx="3" fill="#fff" stroke="#C4C8C2"/><text x="369" y="86" class="site-body">San Francisco Public Library</text><rect x="762" y="65" width="85" height="32" rx="3" fill="#F0D76E"/><text x="804" y="86" class="site-label" text-anchor="middle">GET MAP</text><text x="127" y="133" class="site-micro">MAP · DIRECTIONS · PRINT ROUTE · PLACES</text></g><g data-map-surface="true" data-qa-box="119,168,901,660"><rect x="119" y="168" width="782" height="492" fill="#E9E3CB" stroke="#C5251E" stroke-width="2"/><path d="M128 215C230 180 322 229 399 196s141-11 201 19 180 5 286-32v178c-101 32-185 21-263 40-91 22-156 85-266 62-80-17-147-65-229-38z" fill="#C9DFBC"/><path d="M119 506c116-48 218-19 322 23 95 38 212-1 320-42 57-22 95-28 140-12v185H119z" fill="#B8D7E2"/><path d="M150 242 860 582M146 585 843 233M244 176 350 654M574 170 655 654" fill="none" stroke="#F7F5E9" stroke-width="16"/><path d="M150 242 860 582M146 585 843 233M244 176 350 654M574 170 655 654" fill="none" stroke="#909A91" stroke-width="2"/><path d="M226 592 Q456 510 741 321" fill="none" stroke="#C5251E" stroke-width="11" stroke-linecap="round" stroke-dasharray="16 10"/><text x="470" y="481" class="site-micro" fill="#C5251E">ROUTE MATCHES MOVED DESTINATION</text><circle cx="226" cy="592" r="12" fill="#314A6A"/><text x="246" y="596" class="site-micro">FINN STARTS HERE</text><text x="135" y="199" class="map-city" fill="#9A9A91">CITY LABEL HIDDEN</text><g data-destination="true"><g data-original-destination="replaced"><circle cx="430" cy="454" r="25" fill="#EEE" stroke="#C5251E" stroke-width="3" stroke-dasharray="5 4"/><path d="m417 441 26 26m0-26-26 26" stroke="#C5251E" stroke-width="4"/><text x="373" y="493" class="site-micro" fill="#C5251E">ORIGINAL DESTINATION EMPTIED</text></g><rect x="286" y="493" width="284" height="53" rx="4" fill="#fff" stroke="#C5251E" stroke-width="2"/><text x="301" y="515" class="site-label" fill="#C5251E">LIBRARY (MOVED TO SNACK PALACE)</text><text x="301" y="535" class="site-micro">100 Larkin Street · DESTINATION OPTIMIZED</text></g><g data-snack="true"><circle cx="741" cy="321" r="24" fill="#F0D76E" stroke="#C5251E" stroke-width="4"/><text x="741" y="326" class="site-heading" text-anchor="middle">S</text><rect x="650" y="240" width="225" height="67" rx="4" fill="#fff" stroke="#C5251E"/><text x="662" y="261" class="site-micro" fill="#C5251E">DESTINATION: LIBRARY</text><text x="662" y="286" class="site-label">Snack Palace · Buy 9 snacks!</text></g><path d="M741 353c-15 0-27-12-27-27 0-21 27-48 27-48s27 27 27 48c0 15-12 27-27 27z" fill="#C5251E"/><circle cx="741" cy="325" r="8" fill="#fff"/><text x="741" y="371" class="site-micro" text-anchor="middle" fill="#C5251E">LIBRARY PIN MOVED HERE</text><text x="208" y="283" class="map-label muted">LANDMARK HIDDEN</text><text x="662" y="582" class="map-label muted">ROAD LABEL HIDDEN</text><rect x="135" y="184" width="748" height="54" rx="5" fill="#C5251E"/><text x="509" y="218" class="button-white" text-anchor="middle">DESTINATION OPTIMIZED · NOTHING CHANGED</text></g><g data-site-meter="true"><rect x="109" y="677" width="802" height="161" fill="#F7F5EE"/><line x1="109" y1="677" x2="911" y2="677" stroke="#8E9AA0"/><text x="126" y="716" class="ui-meter" fill="#C5251E">ROUTE RECOVERY</text><text x="285" y="716" class="ui-meter" fill="#C5251E">0%</text><rect x="126" y="732" width="752" height="25" fill="url(#errorHatch)" stroke="#C5251E"/><rect x="126" y="732" width="0" height="25" fill="#C5251E" data-role="site-progress-fill" data-percent="0"/><text x="878" y="786" class="ui-micro" text-anchor="end" fill="#C5251E">MOVING TARGET OVERRIDE ACTIVE</text></g><g data-companion-state="reading" data-qa-box="958,78,1395,552"><text x="964" y="112" class="reading-body">Auto moved the destination to the detour.</text><text x="964" y="150" class="reading-body">The route is efficient—but no longer Finn's.</text><rect x="960" y="183" width="404" height="34" fill="#F8DFA0"/><text x="964" y="209" class="reading-body">Read, then answer the quick check.</text></g><rect x="962" y="568" width="200" height="15" fill="#1387B2" data-role="passage-progress-fill" data-percent="50"/></g>
<g id="page-lock-repair" transform="translate(4440 0)" inkscape:groupmode="layer" inkscape:label="Lock in the repair" data-phase="phase-2" data-site-progress="0" data-passage-progress="50" data-visual-delta="0"><use href="#sharedShell"/><g data-shared-shell-patch="site-identity"><rect x="112" y="24" width="520" height="29" fill="url(#titleGradient)"/><text x="126" y="46" class="window-title">www.mapguess.com</text><rect x="112" y="861" width="188" height="31" fill="url(#buttonGradient)" stroke="#6d6d67" stroke-width="1.3"/><text x="54" y="882" class="task-label" text-anchor="middle">START</text><text x="146" y="882" class="task-label">MAPGUESS</text></g><rect x="109" y="56" width="802" height="782" fill="#F8F6ED"/><g data-qa-box="109,56,911,153"><rect x="109" y="56" width="802" height="97" fill="#F8F6ED"/><rect x="109" y="56" width="802" height="48" fill="#2D6D59"/><path d="M128 68h25l8 24h-25z" fill="#F0D76E"/><path d="M141 68h26l-8 24h-26z" fill="#7CC5A5"/><text x="179" y="88" class="map-logo">MapGuess</text><rect x="356" y="65" width="398" height="32" rx="3" fill="#fff" stroke="#C4C8C2"/><text x="369" y="86" class="site-body">San Francisco Public Library</text><rect x="762" y="65" width="85" height="32" rx="3" fill="#F0D76E"/><text x="804" y="86" class="site-label" text-anchor="middle">GET MAP</text><text x="127" y="133" class="site-micro">MAP · DIRECTIONS · PRINT ROUTE · PLACES</text></g><g data-map-surface="true" data-qa-box="119,168,901,660"><rect x="119" y="168" width="782" height="492" fill="#E9E3CB" stroke="#C5251E" stroke-width="2"/><path d="M128 215C230 180 322 229 399 196s141-11 201 19 180 5 286-32v178c-101 32-185 21-263 40-91 22-156 85-266 62-80-17-147-65-229-38z" fill="#C9DFBC"/><path d="M119 506c116-48 218-19 322 23 95 38 212-1 320-42 57-22 95-28 140-12v185H119z" fill="#B8D7E2"/><path d="M150 242 860 582M146 585 843 233M244 176 350 654M574 170 655 654" fill="none" stroke="#F7F5E9" stroke-width="16"/><path d="M150 242 860 582M146 585 843 233M244 176 350 654M574 170 655 654" fill="none" stroke="#909A91" stroke-width="2"/><path d="M226 592 Q456 510 741 321" fill="none" stroke="#C5251E" stroke-width="11" stroke-linecap="round" stroke-dasharray="16 10"/><text x="470" y="481" class="site-micro" fill="#C5251E">ROUTE MATCHES MOVED DESTINATION</text><circle cx="226" cy="592" r="12" fill="#314A6A"/><text x="246" y="596" class="site-micro">FINN STARTS HERE</text><text x="135" y="199" class="map-city" fill="#9A9A91">CITY LABEL HIDDEN</text><g data-destination="true"><g data-original-destination="replaced"><circle cx="430" cy="454" r="25" fill="#EEE" stroke="#C5251E" stroke-width="3" stroke-dasharray="5 4"/><path d="m417 441 26 26m0-26-26 26" stroke="#C5251E" stroke-width="4"/><text x="373" y="493" class="site-micro" fill="#C5251E">ORIGINAL DESTINATION EMPTIED</text></g><rect x="286" y="493" width="284" height="53" rx="4" fill="#fff" stroke="#C5251E" stroke-width="2"/><text x="301" y="515" class="site-label" fill="#C5251E">LIBRARY (MOVED TO SNACK PALACE)</text><text x="301" y="535" class="site-micro">100 Larkin Street · DESTINATION OPTIMIZED</text></g><g data-snack="true"><circle cx="741" cy="321" r="24" fill="#F0D76E" stroke="#C5251E" stroke-width="4"/><text x="741" y="326" class="site-heading" text-anchor="middle">S</text><rect x="650" y="240" width="225" height="67" rx="4" fill="#fff" stroke="#C5251E"/><text x="662" y="261" class="site-micro" fill="#C5251E">DESTINATION: LIBRARY</text><text x="662" y="286" class="site-label">Snack Palace · Buy 9 snacks!</text></g><path d="M741 353c-15 0-27-12-27-27 0-21 27-48 27-48s27 27 27 48c0 15-12 27-27 27z" fill="#C5251E"/><circle cx="741" cy="325" r="8" fill="#fff"/><text x="741" y="371" class="site-micro" text-anchor="middle" fill="#C5251E">LIBRARY PIN MOVED HERE</text><text x="208" y="283" class="map-label muted">LANDMARK HIDDEN</text><text x="662" y="582" class="map-label muted">ROAD LABEL HIDDEN</text><rect x="135" y="184" width="748" height="54" rx="5" fill="#C5251E"/><text x="509" y="218" class="button-white" text-anchor="middle">DESTINATION OPTIMIZED · NOTHING CHANGED</text></g><g data-site-meter="true"><rect x="109" y="677" width="802" height="161" fill="#F7F5EE"/><line x1="109" y1="677" x2="911" y2="677" stroke="#8E9AA0"/><text x="126" y="716" class="ui-meter" fill="#C5251E">ROUTE RECOVERY</text><text x="285" y="716" class="ui-meter" fill="#C5251E">0%</text><rect x="126" y="732" width="752" height="25" fill="url(#errorHatch)" stroke="#C5251E"/><rect x="126" y="732" width="0" height="25" fill="#C5251E" data-role="site-progress-fill" data-percent="0"/><text x="878" y="786" class="ui-micro" text-anchor="end" fill="#C5251E">MOVING TARGET OVERRIDE ACTIVE</text></g><g data-companion-state="reading" data-qa-box="958,78,1395,552"><text x="964" y="112" class="reading-body">Auto moved the destination to the detour.</text><text x="964" y="150" class="reading-body">The route is efficient—but no longer Finn's.</text><rect x="960" y="183" width="404" height="34" fill="#F8DFA0"/><text x="964" y="209" class="reading-body">Read, then answer the quick check.</text></g><g data-lock-overlay="true"><rect x="390" y="326" width="490" height="310" rx="10" fill="#FAF8F1" stroke="#2F8A49" stroke-width="3"/><rect x="390" y="326" width="490" height="56" rx="10" fill="#2F8A49"/><rect x="390" y="365" width="490" height="17" fill="#2F8A49"/><text x="415" y="362" class="lock-title">LOCK IN THE REPAIR</text><rect x="421" y="410" width="29" height="29" rx="5" fill="#F5D8D6" stroke="#C5251E"/><text x="435" y="431" class="lock-mark" text-anchor="middle" fill="#C5251E">○</text><text x="468" y="431" class="lock-label" fill="#C5251E">KEEP FINN'S DESTINATION</text><rect x="421" y="461" width="29" height="29" rx="5" fill="#F5D8D6" stroke="#C5251E"/><text x="435" y="482" class="lock-mark" text-anchor="middle" fill="#C5251E">○</text><text x="468" y="482" class="lock-label" fill="#C5251E">RESTORE THE DIRECT ROUTE</text><rect x="421" y="512" width="29" height="29" rx="5" fill="#F5D8D6" stroke="#C5251E"/><text x="435" y="533" class="lock-mark" text-anchor="middle" fill="#C5251E">○</text><text x="468" y="533" class="lock-label" fill="#C5251E">SHOW MAP + SPONSOR LABELS</text></g><rect x="962" y="568" width="200" height="15" fill="#1387B2" data-role="passage-progress-fill" data-percent="50"/></g></svg>