<svg xmlns="http://www.w3.org/2000/svg" viewBox="0 0 34 34" fill="none" stroke="#263d49" stroke-width="1.5" stroke-linejoin="round"><path fill="#e9dfba" d="m3 7 8-3 10 3 8-3v22l-8 3-10-3-8 3Z"/><path fill="#c0cfad" d="m11 4 10 3v22l-10-3Z"/><path fill="none" d="M11 4v22M21 7v22"/><path d="m7 19 8-5 9 5" fill="none" stroke="#6a897f" stroke-dasharray="2 2"/><path fill="#ba5547" d="M24 8a4 4 0 0 0-4 4c0 3 4 7 4 7s4-4 4-7a4 4 0 0 0-4-4Z"/><circle cx="24" cy="12" r="1.2" fill="#f6ebcd" stroke="none"/></svg>
