<svg xmlns="http://www.w3.org/2000/svg" viewBox="0 0 1536 1024" role="img" aria-labelledby="title desc">
  <title id="title">Internet Recovery 98 final breach production state board</title>
  <desc id="desc">Six states show a genuine ten-site finish, live Evidence 11 arrival, origin tracing, evidence preservation, service-access revocation, and the restored desktop.</desc>
  <defs>
    <pattern id="grid" width="8" height="8" patternUnits="userSpaceOnUse">
      <path d="M8 0H0v8" fill="none" stroke="#FFFFFF" stroke-opacity=".05" stroke-width="1"/>
    </pattern>
    <marker id="arrow" viewBox="0 0 10 10" refX="9" refY="5" markerWidth="7" markerHeight="7" orient="auto">
      <path d="M0 0 10 5 0 10Z" fill="#6655A6"/>
    </marker>
  </defs>
  <rect width="1536" height="1024" fill="#0C2948"/>
  <rect width="1536" height="1024" fill="url(#grid)"/>
  <rect x="14" y="12" width="1508" height="56" rx="4" fill="#164D82" stroke="#E9EEF2" stroke-width="3"/>
  <text x="768" y="49" text-anchor="middle" font-family="Arial, sans-serif" font-size="30" font-weight="800" fill="#FFFFFF">INTERNET RECOVERY 98 · FINAL BREACH · PRODUCTION STATE BOARD</text>

  <!-- Panel 1 -->
  <g transform="translate(20 84)">
    <rect width="482" height="420" rx="7" fill="#E9EEF2" stroke="#FFFFFF" stroke-width="3"/>
    <rect width="482" height="42" rx="7" fill="#23689C"/>
    <circle cx="27" cy="21" r="16" fill="#F2B134" stroke="#17212B" stroke-width="2"/>
    <text x="27" y="28" text-anchor="middle" font-family="Arial" font-size="20" font-weight="800" fill="#17212B">1</text>
    <text x="53" y="27" font-family="Arial" font-size="18" font-weight="800" fill="#FFFFFF">GENUINE FINISH · USER-PACED</text>
    <rect x="14" y="56" width="454" height="38" fill="#123F73"/>
    <text x="28" y="81" font-family="Consolas" font-size="15" font-weight="700" fill="#FFFFFF">RECOVERY MAP · CASE FILE 10/10</text>
    <g fill="#E4F2EA" stroke="#287A55" stroke-width="2">
      <rect x="22" y="110" width="72" height="52" rx="4"/><rect x="105" y="110" width="72" height="52" rx="4"/><rect x="188" y="110" width="72" height="52" rx="4"/><rect x="271" y="110" width="72" height="52" rx="4"/><rect x="354" y="110" width="72" height="52" rx="4"/>
      <rect x="22" y="174" width="72" height="52" rx="4"/><rect x="105" y="174" width="72" height="52" rx="4"/><rect x="188" y="174" width="72" height="52" rx="4"/><rect x="271" y="174" width="72" height="52" rx="4"/><rect x="354" y="174" width="72" height="52" rx="4"/>
    </g>
    <g fill="#287A55" font-family="Arial" font-size="13" font-weight="800" text-anchor="middle">
      <text x="58" y="143">OK</text><text x="141" y="143">OK</text><text x="224" y="143">OK</text><text x="307" y="143">OK</text><text x="390" y="143">OK</text>
      <text x="58" y="207">OK</text><text x="141" y="207">OK</text><text x="224" y="207">OK</text><text x="307" y="207">OK</text><text x="390" y="207">OK</text>
    </g>
    <rect x="36" y="244" width="410" height="88" rx="8" fill="#FFFFFF" stroke="#287A55" stroke-width="4"/>
    <text x="241" y="278" text-anchor="middle" font-family="Arial" font-size="26" font-weight="800" fill="#287A55">10 OF 10 SITES SECURED</text>
    <text x="241" y="306" text-anchor="middle" font-family="Arial" font-size="14" fill="#17212B">The repairs are holding.</text>
    <rect x="112" y="350" width="258" height="44" rx="5" fill="#F2B134" stroke="#17212B" stroke-width="3"/>
    <text x="241" y="378" text-anchor="middle" font-family="Arial" font-size="15" font-weight="800" fill="#17212B">REVIEW COMPLETED CASE FILE</text>
    <text x="26" y="410" font-family="Consolas" font-size="11" fill="#5F6B76">AMY supportive · CHINMAY relieved · TECHNO + ball celebrates</text>
  </g>

  <!-- Panel 2 -->
  <g transform="translate(527 84)">
    <rect width="482" height="420" rx="7" fill="#F4F1E8" stroke="#FFFFFF" stroke-width="3"/>
    <rect width="482" height="42" rx="7" fill="#8D2B25"/>
    <circle cx="27" cy="21" r="16" fill="#F2B134" stroke="#17212B" stroke-width="2"/>
    <text x="27" y="28" text-anchor="middle" font-family="Arial" font-size="20" font-weight="800" fill="#17212B">2</text>
    <text x="53" y="27" font-family="Arial" font-size="18" font-weight="800" fill="#FFFFFF">LIVE EVIDENCE + SAFETY GATE</text>
    <rect x="14" y="56" width="454" height="30" fill="#F8E1DE" stroke="#B3261E" stroke-width="2"/>
    <text x="241" y="77" text-anchor="middle" font-family="Arial" font-size="13" font-weight="800" fill="#B3261E">STORY EVENT · FICTIONAL SYSTEM BREACH</text>
    <path d="M38 106h86l28 28v102H38Z" fill="#FFFFFF" stroke="#1D3557" stroke-width="5"/>
    <path d="M124 106v28h28" fill="#D8E6F5" stroke="#1D3557" stroke-width="5"/>
    <circle cx="72" cy="160" r="11" fill="#B3261E"/>
    <text x="178" y="130" font-family="Consolas" font-size="17" font-weight="700" fill="#B3261E">LIVE EVIDENCE DETECTED</text>
    <text x="178" y="160" font-family="Consolas" font-size="23" font-weight="800" fill="#17212B">EVIDENCE_11.LIVE</text>
    <text x="178" y="188" font-family="Consolas" font-size="14" fill="#5F6B76">SOURCE: RECOVERY DESKTOP</text>
    <text x="178" y="212" font-family="Consolas" font-size="14" fill="#B3261E">STATUS: ARRIVING NOW</text>
    <rect x="30" y="254" width="422" height="88" rx="7" fill="#FFFFFF" stroke="#1D3557" stroke-width="3"/>
    <text x="48" y="282" font-family="Arial" font-size="16" font-weight="800" fill="#17212B">This screen only affects the fictional game desktop.</text>
    <text x="48" y="307" font-family="Arial" font-size="14" fill="#5F6B76">It cannot scan, lock, infect, or repair your device.</text>
    <text x="48" y="329" font-family="Arial" font-size="14" fill="#5F6B76">Never enter real information.</text>
    <rect x="54" y="360" width="174" height="42" rx="5" fill="#F2B134" stroke="#17212B" stroke-width="3"/>
    <text x="141" y="387" text-anchor="middle" font-family="Arial" font-size="14" font-weight="800">BEGIN CONTAINMENT</text>
    <rect x="246" y="360" width="182" height="42" rx="5" fill="#FFFFFF" stroke="#17212B" stroke-width="3"/>
    <text x="337" y="387" text-anchor="middle" font-family="Arial" font-size="14" font-weight="700">EXIT + RESUME LATER</text>
  </g>

  <!-- Panel 3 -->
  <g transform="translate(1034 84)">
    <rect width="482" height="420" rx="7" fill="#E9EEF2" stroke="#FFFFFF" stroke-width="3"/>
    <rect width="482" height="42" rx="7" fill="#6B3FA0"/>
    <circle cx="27" cy="21" r="16" fill="#F2B134" stroke="#17212B" stroke-width="2"/>
    <text x="27" y="28" text-anchor="middle" font-family="Arial" font-size="20" font-weight="800" fill="#17212B">3</text>
    <text x="53" y="27" font-family="Arial" font-size="18" font-weight="800" fill="#FFFFFF">CHECKPOINT 1 · TRACE ORIGIN</text>
    <rect x="14" y="56" width="454" height="28" fill="#F8E1DE"/>
    <text x="241" y="76" text-anchor="middle" font-family="Arial" font-size="12" font-weight="800" fill="#B3261E">FAKE GAME VIRUS · NO REAL DEVICE THREAT</text>
    <rect x="18" y="96" width="296" height="252" fill="#FFFFFF" stroke="#5F6B76" stroke-width="3"/>
    <text x="32" y="121" font-family="Arial" font-size="19" font-weight="800" fill="#17212B">Ten warnings. One writer.</text>
    <g fill="#F8E1DE" stroke="#B3261E" stroke-width="2">
      <rect x="32" y="142" width="66" height="30" rx="4"/><rect x="32" y="180" width="66" height="30" rx="4"/><rect x="32" y="218" width="66" height="30" rx="4"/><rect x="32" y="256" width="66" height="30" rx="4"/>
    </g>
    <g fill="none" stroke="#6655A6" stroke-width="3">
      <path d="M98 157C132 157 126 214 164 214"/><path d="M98 195c34 0 28 19 66 19"/><path d="M98 233c34 0 28-19 66-19"/><path d="M98 271c34 0 28-57 66-57"/>
    </g>
    <rect x="164" y="176" width="130" height="76" rx="7" fill="#EEE9FA" stroke="#6655A6" stroke-width="4"/>
    <text x="229" y="205" text-anchor="middle" font-family="Arial" font-size="14" font-weight="800">AI REPAIR SERVICE</text>
    <text x="229" y="230" text-anchor="middle" font-family="Consolas" font-size="12">one fingerprint</text>
    <text x="173" y="320" font-family="Consolas" font-size="12" fill="#287A55">SHARED ORIGIN VERIFIED</text>
    <rect x="328" y="96" width="140" height="252" fill="#FFFFFF" stroke="#1D3557" stroke-width="3"/>
    <rect x="328" y="96" width="140" height="34" fill="#123F73"/>
    <text x="398" y="118" text-anchor="middle" font-family="Arial" font-size="13" font-weight="800" fill="#FFFFFF">READING COMPANION</text>
    <path d="M344 158h106M344 182h94M344 206h102M344 230h86M344 254h99" stroke="#AEB8C2" stroke-width="8" stroke-linecap="round"/>
    <rect x="342" y="294" width="112" height="34" rx="4" fill="#F2B134"/>
    <text x="398" y="316" text-anchor="middle" font-family="Arial" font-size="12" font-weight="800">READ + TRACE</text>
    <rect x="42" y="365" width="398" height="38" rx="5" fill="#E4F2EA" stroke="#287A55" stroke-width="3"/>
    <text x="241" y="389" text-anchor="middle" font-family="Consolas" font-size="13" font-weight="700" fill="#287A55">ROUTE TRACED · CHECKPOINT 1 SAVED</text>
  </g>

  <!-- Panel 4 -->
  <g transform="translate(20 524)">
    <rect width="482" height="420" rx="7" fill="#E9EEF2" stroke="#FFFFFF" stroke-width="3"/>
    <rect width="482" height="42" rx="7" fill="#1D5B91"/>
    <circle cx="27" cy="21" r="16" fill="#F2B134" stroke="#17212B" stroke-width="2"/>
    <text x="27" y="28" text-anchor="middle" font-family="Arial" font-size="20" font-weight="800" fill="#17212B">4</text>
    <text x="53" y="27" font-family="Arial" font-size="18" font-weight="800" fill="#FFFFFF">CHECKPOINT 2 · PRESERVE EVIDENCE</text>
    <rect x="14" y="56" width="454" height="28" fill="#F8E1DE"/>
    <text x="241" y="76" text-anchor="middle" font-family="Arial" font-size="12" font-weight="800" fill="#B3261E">FAKE GAME VIRUS · NO REAL DEVICE THREAT</text>
    <rect x="18" y="96" width="296" height="252" fill="#FFFFFF" stroke="#5F6B76" stroke-width="3"/>
    <text x="32" y="122" font-family="Arial" font-size="19" font-weight="800" fill="#17212B">Keep the proof.</text>
    <path d="M42 156h92l16 18h130v142H42Z" fill="#D8E6F5" stroke="#1D3557" stroke-width="5"/>
    <g fill="#FFFFFF" stroke="#5F6B76" stroke-width="2">
      <rect x="62" y="190" width="76" height="28" rx="3"/><rect x="151" y="190" width="76" height="28" rx="3"/><rect x="62" y="228" width="76" height="28" rx="3"/><rect x="151" y="228" width="76" height="28" rx="3"/><rect x="62" y="266" width="76" height="28" rx="3"/>
    </g>
    <g font-family="Consolas" font-size="11" text-anchor="middle" fill="#17212B">
      <text x="100" y="208">01-02</text><text x="189" y="208">03-04</text><text x="100" y="246">05-06</text><text x="189" y="246">07-08</text><text x="100" y="284">09-11</text>
    </g>
    <circle cx="248" cy="285" r="26" fill="#287A55"/>
    <path d="M236 285l9 9 18-21" fill="none" stroke="#FFFFFF" stroke-width="7" stroke-linecap="round" stroke-linejoin="round"/>
    <rect x="328" y="96" width="140" height="252" fill="#FFFFFF" stroke="#1D3557" stroke-width="3"/>
    <rect x="328" y="96" width="140" height="34" fill="#123F73"/>
    <text x="398" y="118" text-anchor="middle" font-family="Arial" font-size="13" font-weight="800" fill="#FFFFFF">READING COMPANION</text>
    <path d="M344 158h106M344 182h94M344 206h102M344 230h86M344 254h99" stroke="#AEB8C2" stroke-width="8" stroke-linecap="round"/>
    <rect x="342" y="294" width="112" height="34" rx="4" fill="#F2B134"/>
    <text x="398" y="316" text-anchor="middle" font-family="Arial" font-size="12" font-weight="800">READ + PRESERVE</text>
    <rect x="42" y="365" width="398" height="38" rx="5" fill="#E4F2EA" stroke="#287A55" stroke-width="3"/>
    <text x="241" y="389" text-anchor="middle" font-family="Consolas" font-size="13" font-weight="700" fill="#287A55">EVIDENCE PRESERVED · CHECKPOINT 2 SAVED</text>
  </g>

  <!-- Panel 5 -->
  <g transform="translate(527 524)">
    <rect width="482" height="420" rx="7" fill="#E9EEF2" stroke="#FFFFFF" stroke-width="3"/>
    <rect width="482" height="42" rx="7" fill="#8D2B25"/>
    <circle cx="27" cy="21" r="16" fill="#F2B134" stroke="#17212B" stroke-width="2"/>
    <text x="27" y="28" text-anchor="middle" font-family="Arial" font-size="20" font-weight="800" fill="#17212B">5</text>
    <text x="53" y="27" font-family="Arial" font-size="18" font-weight="800" fill="#FFFFFF">CHECKPOINT 3 · REVOKE ACCESS</text>
    <rect x="14" y="56" width="454" height="28" fill="#F8E1DE"/>
    <text x="241" y="76" text-anchor="middle" font-family="Arial" font-size="12" font-weight="800" fill="#B3261E">FAKE GAME VIRUS · NO REAL DEVICE THREAT</text>
    <rect x="18" y="96" width="450" height="200" fill="#FFFFFF" stroke="#1D3557" stroke-width="3"/>
    <text x="36" y="125" font-family="Arial" font-size="20" font-weight="800" fill="#17212B">End the permission.</text>
    <text x="36" y="158" font-family="Consolas" font-size="14" fill="#5F6B76">PRODUCT: VibeShift AI Auto-Fix</text>
    <text x="36" y="185" font-family="Consolas" font-size="14" fill="#5F6B76">SERVICE ID: ai_repair_service</text>
    <text x="36" y="212" font-family="Consolas" font-size="14" fill="#B3261E">STATUS: ACTIVE WITHOUT CURRENT COMMAND</text>
    <text x="36" y="239" font-family="Consolas" font-size="14" fill="#B3261E">WRITE SCOPE: INTERNET + RECOVERY DESKTOP</text>
    <rect x="110" y="255" width="262" height="42" rx="5" fill="#B3261E" stroke="#17212B" stroke-width="3"/>
    <text x="241" y="282" text-anchor="middle" font-family="Arial" font-size="15" font-weight="800" fill="#FFFFFF">REVOKE AI SERVICE ACCESS</text>
    <rect x="52" y="314" width="378" height="52" rx="6" fill="#FFF4D8" stroke="#9A6A00" stroke-width="3"/>
    <text x="241" y="337" text-anchor="middle" font-family="Arial" font-size="13" font-weight="800">This affects only the fictional service.</text>
    <text x="241" y="356" text-anchor="middle" font-family="Arial" font-size="12">Ten secured sites and evidence remain saved.</text>
    <rect x="42" y="374" width="398" height="30" rx="5" fill="#E4F2EA" stroke="#287A55" stroke-width="3"/>
    <text x="241" y="394" text-anchor="middle" font-family="Consolas" font-size="12" font-weight="700" fill="#287A55">ACCESS REVOKED · CHECKPOINT 3 SAVED</text>
  </g>

  <!-- Panel 6 -->
  <g transform="translate(1034 524)">
    <rect width="482" height="420" rx="7" fill="#E9EEF2" stroke="#FFFFFF" stroke-width="3"/>
    <rect width="482" height="42" rx="7" fill="#23689C"/>
    <circle cx="27" cy="21" r="16" fill="#F2B134" stroke="#17212B" stroke-width="2"/>
    <text x="27" y="28" text-anchor="middle" font-family="Arial" font-size="20" font-weight="800" fill="#17212B">6</text>
    <text x="53" y="27" font-family="Arial" font-size="18" font-weight="800" fill="#FFFFFF">RESTORED DESKTOP + EPILOGUE</text>
    <rect x="14" y="56" width="454" height="38" fill="#123F73"/>
    <text x="28" y="81" font-family="Consolas" font-size="14" font-weight="700" fill="#FFFFFF">SYSTEM INTEGRITY: STABLE</text>
    <rect x="30" y="112" width="422" height="92" rx="8" fill="#E4F2EA" stroke="#287A55" stroke-width="4"/>
    <circle cx="76" cy="158" r="29" fill="#287A55"/>
    <path d="M61 158l10 10 22-26" fill="none" stroke="#FFFFFF" stroke-width="8" stroke-linecap="round" stroke-linejoin="round"/>
    <text x="120" y="147" font-family="Arial" font-size="15" font-weight="700" fill="#287A55">RECOVERY DESKTOP RESTORED</text>
    <text x="120" y="176" font-family="Arial" font-size="20" font-weight="800" fill="#17212B">OUTSIDE ACCESS REVOKED</text>
    <rect x="30" y="222" width="422" height="58" rx="6" fill="#FFFFFF" stroke="#1D3557" stroke-width="3"/>
    <text x="46" y="246" font-family="Consolas" font-size="13" fill="#17212B">EVIDENCE_11.LIVE · ATTEMPT BLOCKED</text>
    <text x="46" y="268" font-family="Consolas" font-size="13" fill="#287A55">10 SITES · 11 FILES · RECORD FINALIZED</text>
    <rect x="52" y="300" width="378" height="80" rx="8" fill="#FFF4D8" stroke="#9A6A00" stroke-width="4"/>
    <text x="241" y="326" text-anchor="middle" font-family="Arial" font-size="14" font-weight="700" fill="#9A6A00">ACHIEVEMENT UNLOCKED</text>
    <text x="241" y="354" text-anchor="middle" font-family="Arial" font-size="22" font-weight="900" fill="#B3261E">SMARTER THAN THE DEVELOPER</text>
    <text x="241" y="402" text-anchor="middle" font-family="Consolas" font-size="11" fill="#5F6B76">AMY supportive · CHINMAY relieved · TECHNO + ball celebrates</text>
  </g>

  <rect x="20" y="964" width="1496" height="44" rx="5" fill="#F4F1E8" stroke="#FFFFFF" stroke-width="3"/>
  <text x="768" y="991" text-anchor="middle" font-family="Arial" font-size="16" font-weight="800" fill="#17212B">TRACE ORIGIN · PRESERVE EVIDENCE · REVOKE ACCESS · THREE SAVED CHECKPOINTS · NO REAL DEVICE THREAT</text>
</svg>
