<svg xmlns="http://www.w3.org/2000/svg" viewBox="0 0 128 128" role="img" aria-labelledby="title desc">
  <title id="title">MapGuess folded map question pin</title>
  <desc id="desc">An original folded map contains a question-shaped destination pin.</desc>
  <path d="m10 30 34-15 40 15 34-15v83l-34 15-40-15-34 15Z" fill="#F5EBCF" stroke="#22303A" stroke-width="6" stroke-linejoin="round"/>
  <path d="M44 15v83M84 30v83" stroke="#5B9FC1" stroke-width="5"/>
  <path d="M20 83c22-19 36-14 48-28 13-15 22-16 39-24" fill="none" stroke="#C23E38" stroke-width="6" stroke-linecap="round"/>
  <path d="M73 44c0-12 9-20 22-20s22 8 22 20c0 17-22 38-22 38S73 61 73 44Z" fill="#2F6F9E" stroke="#22303A" stroke-width="5"/>
  <path d="M89 42c1-6 11-7 13-1 3 7-8 8-8 14M94 65h.1" fill="none" stroke="#FFFFFF" stroke-width="5" stroke-linecap="round"/>
</svg>

