<?xml version="1.0" encoding="UTF-8"?>
<svg xmlns="http://www.w3.org/2000/svg" xmlns:inkscape="http://www.inkscape.org/namespaces/inkscape" xmlns:sodipodi="http://sodipodi.sourceforge.net/DTD/sodipodi-0.dtd" width="900" height="815" viewBox="20 20 900 815">
  <sodipodi:namedview pagecolor="#c8c8c8">
    <inkscape:page x="20" y="20" width="900" height="815" inkscape:label="Spotty-Fi corrupted site"/>
    <inkscape:page x="1560" y="20" width="900" height="815" inkscape:label="Spotty-Fi repaired site"/>
  </sodipodi:namedview>
  <defs>
    <linearGradient id="desk" x1="0" y1="0" x2="0" y2="1"><stop stop-color="#087f86"/><stop offset="1" stop-color="#005c63"/></linearGradient>
    <linearGradient id="bar" x1="0" y1="0" x2="1" y2="0"><stop stop-color="#073c70"/><stop offset="1" stop-color="#00598f"/></linearGradient>
    <linearGradient id="pink" x1="0" y1="0" x2="1" y2="1"><stop stop-color="#f12d96"/><stop offset="1" stop-color="#8d185e"/></linearGradient>
    <pattern id="hatch" width="10" height="10" patternUnits="userSpaceOnUse" patternTransform="rotate(35)"><line x1="0" y1="0" x2="0" y2="10" stroke="#ee347f" stroke-opacity=".35" stroke-width="3"/></pattern>
    <pattern id="corruptHatch" width="10" height="10" patternUnits="userSpaceOnUse" patternTransform="rotate(35)"><line x1="0" y1="0" x2="0" y2="10" stroke="#C5251E" stroke-opacity=".42" stroke-width="3"/></pattern>
    <g id="buttons"><rect width="25" height="23" fill="#d5d4cc" stroke="#fff"/><path d="M2 21h21V2" fill="none" stroke="#555" stroke-width="2"/></g>
    <g id="spottyMark"><rect width="42" height="28" rx="7" fill="#a8dd19"/><circle cx="15" cy="14" r="8" fill="#111"/><circle cx="29" cy="14" r="8" fill="#e92d8a"/><circle cx="15" cy="14" r="3" fill="#a8dd19"/><circle cx="29" cy="14" r="3" fill="#111"/></g>
    <g id="sharedShell">
      <rect width="1440" height="900" fill="url(#desk)"/>
      <rect x="0" y="850" width="1440" height="50" fill="#d7d5cc" stroke="#fff" stroke-width="2"/>
      <rect x="10" y="858" width="105" height="34" fill="#e3e1d8" stroke="#4c5354"/><text x="62" y="882" text-anchor="middle" class="ui dark">START</text>
      <rect x="128" y="858" width="210" height="34" fill="#c9c8c0" stroke="#606666"/><use href="#spottyMark" x="140" y="861" transform="scale(.75)"/><text x="182" y="882" class="small dark">SPOTTY-FI</text>
      <rect x="348" y="858" width="230" height="34" fill="#c9c8c0" stroke="#606666"/><text x="463" y="882" text-anchor="middle" class="small dark">READING COMPANION</text>
      <text x="720" y="882" text-anchor="middle" class="small dark">INTERNET RECOVERY OS</text><text x="1370" y="882" text-anchor="end" class="small dark">10:24 AM</text>
      <g>
        <rect x="20" y="20" width="900" height="815" rx="5" fill="#101413" stroke="#c9c8c0" stroke-width="4"/>
        <rect x="24" y="24" width="892" height="38" fill="url(#bar)"/><text x="42" y="51" class="title">www.spotty-fi.com</text>
        <use href="#buttons" x="823" y="31"/><use href="#buttons" x="853" y="31"/><use href="#buttons" x="883" y="31"/><path d="m890 37 13 13m0-13-13 13" stroke="#222" stroke-width="2"/>
      </g>
      <g>
        <rect x="940" y="20" width="480" height="815" rx="5" fill="#f4f2eb" stroke="#c9c8c0" stroke-width="4"/>
        <rect x="944" y="24" width="472" height="38" fill="url(#bar)"/><text x="960" y="51" class="title">READING COMPANION</text>
        <use href="#buttons" x="1323" y="31"/><use href="#buttons" x="1353" y="31"/><use href="#buttons" x="1383" y="31"/><path d="m1390 37 13 13m0-13-13 13" stroke="#222" stroke-width="2"/>
        <text x="970" y="112" class="reading">Reading passage appears here.</text><text x="970" y="150" class="reading">The site changes only after Finn</text><text x="970" y="188" class="reading">finishes, checks comprehension,</text><text x="970" y="226" class="reading">and reviews the results.</text>
        <text x="970" y="580" class="small dark">PASSAGE PROGRESS</text><rect x="970" y="596" width="410" height="18" fill="#eceae3" stroke="#46617a"/>
        <rect x="955" y="654" width="450" height="150" fill="#e5e3dc" stroke="#2b5278"/><rect x="955" y="654" width="450" height="34" fill="#07558b"/><text x="970" y="678" class="small">QUICK CHECK — OPENS AFTER READING</text><text x="1180" y="746" text-anchor="middle" class="small muted">RESULTS APPEAR AFTER THE QUICK CHECK</text>
      </g>
    </g>
  </defs>
  <style>
    text{font-family:"Chalkboard SE","Comic Sans MS",sans-serif}.title{fill:#fff;font-size:20px;font-weight:700;letter-spacing:1px}.ui{fill:#f1f0e9;font-size:20px;font-weight:700}.small{fill:#f1f0e9;font-size:14px;font-weight:700}.dark{fill:#17242b}.muted{fill:#778087}.reading{fill:#17242b;font-size:22px}.nav{fill:#dfe4df;font-size:16px}.heading{fill:#fff;font-size:25px;font-weight:700}.lime{fill:#a8dd19}.pink{fill:#ee347f}.meta{fill:#aeb7b1;font-size:13px}.cardTitle{fill:#fff;font-size:16px;font-weight:700}.body{fill:#dfe4df;font-size:14px}.label{fill:#a8dd19;font-size:13px;font-weight:700;letter-spacing:.7px}
  </style>

  <g id="page-spotty-corrupted" inkscape:groupmode="layer" inkscape:label="Spotty-Fi corrupted site" data-phase="phase-1" data-site-progress="0" data-passage-progress="50">
    <use href="#sharedShell"/>
    <rect x="970" y="596" width="205" height="18" fill="#1687b1" data-role="passage-progress-fill" data-percent="50"/>
    <g transform="translate(24 62)">
      <rect width="892" height="674" fill="#080b0a"/>
      <rect width="892" height="54" fill="#121716" stroke="#323b38"/><use href="#spottyMark" x="18" y="13"/><text x="74" y="35" class="ui">SPOTTY-FI</text><text x="215" y="34" class="nav">Home</text><text x="275" y="34" class="nav">Search</text><text x="345" y="34" class="nav">Library</text><rect x="448" y="9" width="426" height="36" rx="18" fill="#202422" stroke="#C5251E"/><circle cx="472" cy="27" r="8" fill="none" stroke="#C5251E" stroke-width="2"/><path d="m478 33 8 8" stroke="#C5251E" stroke-width="2"/><text x="500" y="33" class="meta" style="fill:#C5251E">LISTEN TO WHAT WE WANT</text>
      <rect x="0" y="54" width="152" height="548" fill="#101514" stroke="#39423f"/><text x="22" y="92" class="nav lime">● Home</text><text x="22" y="132" class="nav">○ Search</text><text x="22" y="172" class="nav">▥ Library</text><line x1="18" y1="198" x2="134" y2="198" stroke="#4d5753"/><text x="22" y="232" class="meta">DISCOVERY</text><text x="22" y="268" class="nav" style="fill:#C5251E">▣ Made for Finn</text><text x="22" y="306" class="nav">♫ New sounds</text><text x="22" y="344" class="nav">☆ Following</text>
      <g transform="translate(170 74)"><text class="heading" x="0" y="28">DISCOVER WHAT TO PLAY NEXT</text><text x="0" y="55" class="meta">Generated to match everybody. No people required.</text>
        <g transform="translate(0 80)"><rect width="232" height="246" rx="7" fill="#151b19" stroke="#C5251E"/><rect x="12" y="12" width="208" height="150" fill="#111"/><rect x="12" y="12" width="208" height="150" fill="url(#corruptHatch)"/><circle cx="154" cy="78" r="52" fill="#C5251E"/><path d="M42 142 104 42l58 100z" fill="#a8dd19"/><text x="12" y="190" class="cardTitle" style="fill:#C5251E">TRACK_001</text><text x="12" y="214" class="meta" style="fill:#C5251E">ARTIST: GENERATED</text><text x="12" y="236" class="meta" style="fill:#C5251E">CREDITS: NONE</text></g>
        <g transform="translate(246 80)"><rect width="232" height="246" rx="7" fill="#151b19" stroke="#C5251E"/><rect x="12" y="12" width="208" height="150" fill="#111"/><rect x="12" y="12" width="208" height="150" fill="url(#corruptHatch)"/><circle cx="154" cy="78" r="52" fill="#C5251E"/><path d="M42 142 104 42l58 100z" fill="#a8dd19"/><text x="12" y="190" class="cardTitle" style="fill:#C5251E">TRACK_002</text><text x="12" y="214" class="meta" style="fill:#C5251E">ARTIST: GENERATED</text><text x="12" y="236" class="meta" style="fill:#C5251E">CREDITS: NONE</text></g>
        <g transform="translate(492 80)"><rect width="232" height="246" rx="7" fill="#151b19" stroke="#C5251E"/><rect x="12" y="12" width="208" height="150" fill="#111"/><rect x="12" y="12" width="208" height="150" fill="url(#corruptHatch)"/><circle cx="154" cy="78" r="52" fill="#C5251E"/><path d="M42 142 104 42l58 100z" fill="#a8dd19"/><text x="12" y="190" class="cardTitle" style="fill:#C5251E">TRACK_003</text><text x="12" y="214" class="meta" style="fill:#C5251E">ARTIST: GENERATED</text><text x="12" y="236" class="meta" style="fill:#C5251E">CREDITS: NONE</text></g>
      </g>
      <g transform="translate(170 430)"><rect width="724" height="130" rx="8" fill="#171b19" stroke="#C5251E"/><rect x="14" y="14" width="102" height="102" fill="url(#corruptHatch)"/><text x="138" y="40" class="heading" style="font-size:24px;fill:#C5251E">CREATOR PROFILE NOT FOUND</text><text x="138" y="66" class="meta" style="fill:#C5251E">TRACK IDS ONLY • ARTIST NAMES REMOVED • CREDITS EMPTY</text><text x="138" y="94" class="body" style="fill:#C5251E">Verified by the recommendation machine. Probably.</text><rect x="570" y="76" width="132" height="34" rx="17" fill="none" stroke="#C5251E"/><text x="636" y="99" text-anchor="middle" class="small" style="fill:#C5251E">FOLLOW WHO?</text></g>
      <g transform="translate(0 574)"><rect width="892" height="100" fill="#111615" stroke="#48524e"/><rect x="18" y="14" width="62" height="62" fill="url(#corruptHatch)"/><text x="96" y="35" class="cardTitle" style="fill:#C5251E">TRACK_001</text><text x="96" y="58" class="meta" style="fill:#C5251E">ARTIST: GENERATED</text><text x="330" y="43" class="body">⤨</text><text x="370" y="44" class="body">◀</text><circle cx="430" cy="40" r="27" fill="#fff"/><path d="m422 25 25 15-25 15z" fill="#111"/><text x="478" y="44" class="body">▶</text><text x="520" y="43" class="body">↻</text><text x="330" y="82" class="meta">0:25</text><rect x="370" y="72" width="390" height="7" rx="4" fill="#666"/><rect x="370" y="72" width="62" height="7" rx="4" fill="#fff"/><text x="772" y="82" class="meta">3:12</text><g fill="#C5251E"><rect x="820" y="50" width="7" height="28"/><rect x="831" y="39" width="7" height="39"/><rect x="842" y="58" width="7" height="20"/><rect x="853" y="31" width="7" height="47"/><rect x="864" y="44" width="7" height="34"/></g></g>
    </g>
    <g transform="translate(24 736)"><rect width="892" height="99" fill="#131817"/><text x="18" y="28" class="label" style="fill:#C5251E">CREATOR SIGNAL</text><text x="150" y="28" class="small">0%</text><rect x="18" y="43" width="650" height="20" fill="#282f2c" stroke="#C5251E"/><rect x="18" y="43" width="0" height="20" fill="#C5251E" data-role="site-progress-fill" data-percent="0"/><text x="688" y="59" class="meta" style="font-size:11px;fill:#C5251E">ARTISTS + CREDITS MISSING</text></g>
  </g>

  <g id="page-spotty-repaired" transform="translate(1540 0)" inkscape:groupmode="layer" inkscape:label="Spotty-Fi repaired site" data-phase="phase-1" data-site-progress="100" data-passage-progress="50">
    <use href="#sharedShell"/>
    <rect x="970" y="596" width="205" height="18" fill="#1687b1" data-role="passage-progress-fill" data-percent="50"/>
    <g transform="translate(24 62)">
      <rect width="892" height="674" fill="#080b0a"/>
      <rect width="892" height="54" fill="#121716" stroke="#323b38"/><use href="#spottyMark" x="18" y="13"/><text x="74" y="35" class="ui">SPOTTY-FI</text><text x="215" y="34" class="nav">Home</text><text x="275" y="34" class="nav">Search</text><text x="345" y="34" class="nav">Library</text><rect x="448" y="9" width="426" height="36" rx="18" fill="#202422" stroke="#2F8A49"/><circle cx="472" cy="27" r="8" fill="none" stroke="#2F8A49" stroke-width="2"/><path d="m478 33 8 8" stroke="#2F8A49" stroke-width="2"/><text x="500" y="33" class="meta" style="fill:#2F8A49">WHAT DO YOU WANT TO PLAY?</text>
      <rect x="0" y="54" width="152" height="548" fill="#101514" stroke="#39423f"/><text x="22" y="92" class="nav lime">● Home</text><text x="22" y="132" class="nav">○ Search</text><text x="22" y="172" class="nav">▥ Library</text><line x1="18" y1="198" x2="134" y2="198" stroke="#4d5753"/><text x="22" y="232" class="meta">DISCOVERY</text><text x="22" y="268" class="nav" style="fill:#2F8A49">▣ Chosen by Finn</text><text x="22" y="306" class="nav">♫ New sounds</text><text x="22" y="344" class="nav">☆ Following</text>
      <g transform="translate(170 74)"><text class="heading" x="0" y="28">DISCOVER WHAT TO PLAY NEXT</text><text x="0" y="55" class="meta">Three artists, three sounds, and a reason to keep exploring.</text>
        <g transform="translate(0 80)"><rect width="232" height="246" rx="7" fill="#151b19" stroke="#2F8A49"/><image href="album-paper-v1.png" x="12" y="12" width="208" height="150" preserveAspectRatio="xMidYMid slice"/><text x="12" y="190" class="cardTitle">Paper Planes</text><text x="12" y="214" class="meta">Soft Crash</text><text x="12" y="236" class="meta">Dream-pop single • 3:08</text></g>
        <g transform="translate(246 80)"><rect width="232" height="246" rx="7" fill="#151b19" stroke="#2F8A49"/><image href="album-satellite-v1.png" x="12" y="12" width="208" height="150" preserveAspectRatio="xMidYMid slice"/><text x="12" y="190" class="cardTitle">City of Satellites</text><text x="12" y="214" class="meta">Noir Harbor</text><text x="12" y="236" class="meta">Electronic • 4:07</text></g>
        <g transform="translate(492 80)"><rect width="232" height="246" rx="7" fill="#151b19" stroke="#2F8A49"/><image href="album-band-v1.png" x="12" y="12" width="208" height="150" preserveAspectRatio="xMidYMid slice"/><text x="12" y="190" class="cardTitle">Sunday Circuit</text><text x="12" y="214" class="meta">The Formatics</text><text x="12" y="236" class="meta">Indie pop • 3:12</text></g>
      </g>
      <g transform="translate(170 430)"><rect width="724" height="130" rx="8" fill="#171b19" stroke="#2F8A49"/><image href="artist-portrait-v1.png" x="14" y="14" width="102" height="102" preserveAspectRatio="xMidYMid slice"/><text x="138" y="38" class="heading" style="font-size:27px">Soft Crash</text><circle cx="286" cy="31" r="11" fill="#2F8A49"/><path d="m280 31 4 4 8-10" fill="none" stroke="#fff" stroke-width="2"/><text x="304" y="36" class="meta" style="fill:#2F8A49">VERIFIED CREATOR</text><text x="138" y="68" class="body">18,420 monthly listeners</text><text x="138" y="98" class="meta">Mira — voice • Jo — guitar • Kai — mix • About • Related work</text><rect x="570" y="76" width="132" height="34" rx="17" fill="none" stroke="#2F8A49"/><text x="636" y="99" text-anchor="middle" class="small" style="fill:#2F8A49">FOLLOW</text></g>
      <g transform="translate(0 574)"><rect width="892" height="100" fill="#111615" stroke="#48524e"/><image href="album-paper-v1.png" x="18" y="14" width="62" height="62" preserveAspectRatio="xMidYMid slice"/><text x="96" y="35" class="cardTitle">Paper Planes</text><text x="96" y="58" class="meta">Soft Crash</text><text x="330" y="43" class="body">⤨</text><text x="370" y="44" class="body">◀</text><circle cx="430" cy="40" r="27" fill="#fff"/><rect x="423" y="25" width="5" height="30" fill="#111"/><rect x="433" y="25" width="5" height="30" fill="#111"/><text x="478" y="44" class="body">▶</text><text x="520" y="43" class="body">↻</text><text x="330" y="82" class="meta">0:25</text><rect x="370" y="72" width="390" height="7" rx="4" fill="#666"/><rect x="370" y="72" width="52" height="7" rx="4" fill="#fff"/><text x="772" y="82" class="meta">3:08</text><g fill="#2F8A49"><rect x="820" y="50" width="7" height="28"/><rect x="831" y="39" width="7" height="39"/><rect x="842" y="58" width="7" height="20"/><rect x="853" y="31" width="7" height="47"/><rect x="864" y="44" width="7" height="34"/></g></g>
    </g>
    <g transform="translate(24 736)"><rect width="892" height="99" fill="#131817"/><text x="18" y="28" class="label" style="fill:#2F8A49">CREATOR SIGNAL</text><text x="150" y="28" class="small">100%</text><rect x="18" y="43" width="650" height="20" fill="#282f2c" stroke="#2F8A49"/><rect x="18" y="43" width="650" height="20" fill="#2F8A49" data-role="site-progress-fill" data-percent="100"/><text x="688" y="59" class="meta" style="font-size:11px;fill:#2F8A49">CREATORS + CREDITS RESTORED</text></g>
  </g>
</svg>
