<svg xmlns="http://www.w3.org/2000/svg" viewBox="0 0 240 240" role="img" aria-labelledby="title description">
  <title id="title">Character portrait placeholder</title>
  <desc id="description">A temporary Internet Recovery 98 portrait slot awaiting the approved expression pack.</desc>
  <rect width="240" height="240" fill="#123d68"/>
  <path d="M0 20h240M0 60h240M0 100h240M0 140h240M0 180h240M0 220h240M20 0v240M60 0v240M100 0v240M140 0v240M180 0v240M220 0v240" stroke="#2d668a" stroke-width="1" opacity=".45"/>
  <circle cx="120" cy="86" r="38" fill="#d9e2df" stroke="#071d36" stroke-width="7"/>
  <path d="M52 204c5-49 28-76 68-76s63 27 68 76" fill="#d9e2df" stroke="#071d36" stroke-width="7"/>
  <rect x="18" y="176" width="204" height="46" fill="#ecece5" stroke="#071d36" stroke-width="5"/>
  <text x="120" y="195" fill="#173968" font-family="Courier New,monospace" font-size="13" font-weight="700" text-anchor="middle">PORTRAIT PACK</text>
  <text x="120" y="212" fill="#a6231d" font-family="Courier New,monospace" font-size="12" font-weight="700" text-anchor="middle">PENDING</text>
</svg>
